<?xml version="1.0" standalone="no"?>
<!DOCTYPE svg PUBLIC "-//W3C//DTD SVG 20010904//EN"
 "http://www.w3.org/TR/2001/REC-SVG-20010904/DTD/svg10.dtd">
<svg version="1.0" xmlns="http://www.w3.org/2000/svg"
 width="300.000000pt" height="300.000000pt" viewBox="0 0 300.000000 300.000000"
 preserveAspectRatio="xMidYMid meet">
<metadata>
Created by potrace 1.14, written by Peter Selinger 2001-2017
</metadata>
<g transform="translate(0.000000,300.000000) scale(0.100000,-0.100000)"
fill="#000000" stroke="none">
<path d="M0 1500 l0 -1500 1500 0 1500 0 0 1500 0 1500 -1500 0 -1500 0 0
-1500z m2366 688 l34 -38 0 -388 0 -388 29 -17 c38 -22 58 -70 44 -107 -6 -16
-7 -32 -2 -37 4 -4 21 -32 38 -62 22 -41 37 -57 63 -65 50 -16 70 -64 65 -150
-4 -63 -8 -73 -36 -98 -17 -15 -40 -28 -51 -28 -11 0 -20 -4 -20 -8 0 -5 -15
-34 -34 -65 -30 -49 -33 -61 -24 -84 16 -45 -4 -78 -74 -123 -74 -47 -121 -52
-158 -18 -21 20 -36 23 -99 24 -64 0 -77 -3 -97 -23 -30 -30 -72 -29 -136 3
-61 31 -98 66 -98 94 0 20 -3 20 -519 20 -459 0 -521 2 -535 16 -38 37 -10 64
65 64 50 0 59 3 64 21 4 12 23 39 42 60 37 40 82 59 144 59 35 0 36 1 48 53 6
28 14 62 17 75 l6 22 -292 0 -292 0 -29 29 -29 29 0 537 c0 592 -2 576 63 615
31 20 53 20 900 18 l869 -3 34 -37z"/>
<path d="M596 2134 c-11 -11 -16 -35 -16 -80 l0 -64 870 0 870 0 0 68 c0 40
-5 73 -12 80 -9 9 -213 12 -854 12 -753 0 -844 -2 -858 -16z m108 -46 c20 -28
4 -58 -29 -58 -35 0 -52 36 -29 61 22 25 39 24 58 -3z m130 9 c21 -16 18 -45
-6 -61 -35 -22 -74 27 -48 59 15 18 31 19 54 2z m136 -1 c19 -23 8 -61 -18
-64 -44 -7 -67 32 -36 62 19 20 38 20 54 2z"/>
<path d="M580 1495 l0 -415 555 0 c463 0 561 2 590 14 19 8 35 21 35 28 0 7
13 32 29 56 23 36 28 51 24 86 -3 24 0 52 6 64 13 24 131 92 161 92 26 0 80
-27 80 -40 0 -6 34 -10 78 -10 66 0 82 3 97 20 10 11 33 22 51 26 l34 6 0 244
0 244 -870 0 -870 0 0 -415z m651 154 c10 -19 4 -29 -55 -88 -36 -37 -66 -71
-66 -75 0 -5 30 -40 66 -77 55 -58 64 -71 55 -87 -23 -42 -41 -35 -132 55 -55
53 -89 95 -89 107 0 12 33 54 82 103 87 88 118 101 139 62z m583 -68 c75 -76
88 -93 80 -109 -5 -11 -46 -54 -91 -97 -61 -57 -88 -76 -105 -73 -15 2 -24 11
-26 27 -3 18 12 39 62 90 l66 67 -65 64 c-60 59 -78 94 -58 113 21 21 55 1
137 -82z m-247 44 c5 -15 -135 -266 -168 -300 -23 -23 -52 -12 -57 23 -4 25
142 287 167 301 18 11 49 -3 58 -24z"/>
<path d="M1932 1313 c-42 -24 -43 -26 -37 -67 5 -34 2 -48 -19 -79 -15 -21
-37 -60 -51 -87 -19 -37 -33 -51 -60 -60 -35 -11 -35 -12 -35 -70 0 -56 1 -58
29 -63 32 -7 42 -19 98 -112 33 -55 44 -99 33 -134 -3 -9 13 -26 42 -44 l47
-29 31 26 c29 24 38 26 130 26 91 0 101 -2 129 -25 29 -25 31 -26 63 -9 57 29
67 42 56 72 -11 31 -6 46 50 142 35 59 58 80 105 94 13 4 17 16 17 56 0 49 -2
52 -34 65 -38 16 -48 28 -103 120 -33 55 -43 96 -32 134 2 8 -16 26 -44 44
l-48 30 -27 -26 c-27 -26 -33 -27 -133 -27 -100 0 -107 1 -129 25 -28 29 -24
30 -78 -2z m253 -184 c92 -26 140 -94 133 -190 -10 -140 -160 -213 -279 -135
-128 85 -93 280 59 326 37 11 42 11 87 -1z"/>
<path d="M2104 1045 c-66 -28 -84 -100 -39 -153 33 -39 74 -48 118 -27 62 29
76 104 30 154 -34 36 -68 44 -109 26z"/>
<path d="M1227 993 c-8 -13 -37 -116 -37 -130 0 -10 47 -13 233 -13 l233 0 -4
63 c-2 34 -5 68 -7 75 -3 9 -54 12 -209 12 -113 0 -207 -3 -209 -7z"/>
<path d="M1020 763 c-20 -7 -50 -34 -50 -45 0 -4 185 -8 410 -8 226 0 410 2
410 5 0 2 -5 16 -12 30 l-11 25 -366 -1 c-201 0 -373 -3 -381 -6z"/>
</g>
</svg>
